<svg width="678" height="707" viewBox="0 0 678 707" fill="none" xmlns="http://www.w3.org/2000/svg">
<g filter="url(#filter0_f_3_41)">
<path d="M549.801 524.497C546.365 550.021 521.386 569.96 496.564 563.076C461.195 553.332 420.243 538.135 383.395 535.303C378.537 534.93 326.92 531.017 326.92 531.017C317.79 530.366 309.22 526.377 302.843 519.811L205.532 419.613C194.897 408.664 192.019 392.336 198.268 378.411C198.268 378.411 258.44 246.184 260.674 239.308C262.909 232.431 271.111 172.458 275.971 140.24C277.259 131.702 281.475 123.875 287.895 118.101L403.011 14.559C419.027 0.154215 443.887 2.28885 457.211 19.2129L553.914 142.042C559.386 148.994 562.19 157.633 562.231 166.478C562.341 189.749 564.262 237.527 577.129 268.299C589.647 298.232 612.621 330.558 624.628 346.465C629.235 352.57 629.941 360.826 626.048 367.41C617.575 381.756 600.832 409.299 577.129 444.639C560.788 469.006 553.216 499.127 549.801 524.497Z" fill="#6C31E3"/>
<path d="M313.329 527.385C358.52 435.64 357.26 369.913 338.03 323.006C320.332 279.841 287.416 252.614 261.472 235.717C260.925 238.158 260.133 240.541 259.107 242.829L198.266 378.411C192.017 392.336 194.896 408.665 205.53 419.613L302.842 519.811C305.894 522.954 309.45 525.507 313.329 527.385Z" fill="url(#paint0_radial_3_41)"/>
<path d="M496.575 563.062C521.393 569.946 546.368 550.008 549.804 524.484C552.764 502.51 558.838 476.97 571.029 454.695C543.058 394.486 509.234 363.263 472.154 349.424C432.904 334.775 390.006 339.605 346.542 350.16C356.258 394.378 350.442 452.127 313.38 527.377C317.6 529.42 322.202 530.664 326.957 531.003C326.957 531.003 353.7 533.256 385.506 535.506C417.311 537.757 464.641 554.207 496.575 563.062Z" fill="url(#paint1_radial_3_41)"/>
<path d="M436.311 341.171C448.523 342.447 460.492 345.079 472.141 349.425C509.228 363.265 543.06 394.489 571.035 454.693C572.916 451.257 574.944 447.897 577.13 444.639C600.831 409.299 617.574 381.756 626.047 367.41C629.94 360.826 629.234 352.57 624.625 346.465C612.62 330.558 589.646 298.232 577.13 268.299C564.261 237.527 562.34 189.749 562.231 166.478C562.189 157.633 559.384 148.994 553.913 142.042L457.21 19.2128C456.693 18.5559 456.158 17.9216 455.608 17.3094C462.703 40.5628 462.222 59.2687 457.845 76.2738C453.787 92.0378 446.379 106.34 438.554 121.447L438.552 121.45C435.927 126.516 433.257 131.674 430.648 137.008C420.266 158.245 410.893 182.277 409.51 214.503C408.127 246.73 414.733 287.151 436.314 341.17L436.311 341.171Z" fill="url(#paint2_radial_3_41)"/>
<path d="M436.298 341.17C414.719 287.152 408.11 246.73 409.493 214.501C410.877 182.273 420.251 158.241 430.634 137.003C433.243 131.667 435.914 126.51 438.539 121.442C446.363 106.334 453.771 92.0334 457.829 76.2707C462.207 59.2619 462.688 40.5509 455.585 17.2878C441.943 2.14672 418.393 0.719823 403.007 14.559L287.891 118.101C281.47 123.875 277.255 131.702 275.966 140.24L261.953 233.136C261.823 233.997 261.662 234.854 261.472 235.705C287.418 252.602 320.339 279.831 338.038 323.001C341.495 331.434 344.371 340.472 346.502 350.162C377.07 342.739 407.359 338.148 436.298 341.17Z" fill="url(#paint3_radial_3_41)"/>
<path fill-rule="evenodd" clip-rule="evenodd" d="M409.719 212.379C408.331 244.348 412.322 281.021 433.856 334.927L427.094 334.316C407.774 278.064 403.57 249.223 404.977 216.811C406.385 184.385 416.862 159.449 427.304 138.18C429.948 132.793 436.119 122.677 438.759 117.6C446.577 102.566 451.78 94.6242 456.248 80.8827C462.491 61.6822 461.14 52.588 460.429 43.5378C465.385 76.2539 446.571 104.702 432.347 133.677C421.986 154.784 411.105 180.425 409.719 212.379Z" fill="url(#paint4_radial_3_41)"/>
<path fill-rule="evenodd" clip-rule="evenodd" d="M344.397 325.383C346.951 331.289 349.363 336.058 350.886 343.365L345.244 344.633C342.896 336.101 341.082 330.031 337.832 322.711C318.387 276.836 287.18 253.238 261.677 235.93C292.481 252.503 324.098 278.443 344.397 325.383Z" fill="url(#paint5_radial_3_41)"/>
<path fill-rule="evenodd" clip-rule="evenodd" d="M351.214 349.137C361.99 399.279 349.969 462.98 314.545 524.902C344.155 463.534 358.508 404.594 346.554 350.137L351.214 349.137Z" fill="url(#paint6_radial_3_41)"/>
<path fill-rule="evenodd" clip-rule="evenodd" d="M473.479 344.626C531.559 366.361 553.922 414.085 570.638 453.895C549.993 412.208 521.292 366.171 471.395 349.083C433.429 336.08 401.365 337.622 346.55 350.062L345.328 344.626C403.503 331.372 433.918 329.822 473.479 344.626Z" fill="url(#paint7_radial_3_41)"/>
</g>
<line x1="371.467" y1="282.528" x2="639.528" y2="671.533" stroke="black" stroke-width="51" stroke-linecap="round"/>
<mask id="mask0_3_41" style="mask-type:alpha" maskUnits="userSpaceOnUse" x="175" y="76" width="400" height="400">
<circle cx="375" cy="276" r="200" fill="#D9D9D9"/>
</mask>
<g mask="url(#mask0_3_41)">
<path d="M619.985 598.363C615.491 631.741 582.826 657.816 550.364 648.813C504.111 636.071 450.558 616.198 402.37 612.494C396.017 612.006 328.516 606.889 328.516 606.889C316.576 606.038 305.369 600.821 297.03 592.235L169.773 461.202C155.865 446.885 152.101 425.531 160.273 407.321C160.273 407.321 238.962 234.404 241.884 225.412C244.807 216.419 255.532 137.991 261.888 95.8583C263.573 84.6926 269.086 74.4572 277.482 66.9054L428.023 -68.4995C448.968 -87.337 481.477 -84.5455 498.901 -62.4134L625.363 98.214C632.519 107.306 636.186 118.603 636.239 130.17C636.384 160.603 638.895 223.083 655.723 263.325C672.093 302.468 702.136 344.743 717.838 365.545C723.863 373.529 724.786 384.324 719.696 392.935C708.614 411.695 686.72 447.715 655.723 493.93C634.353 525.795 624.45 565.185 619.985 598.363Z" fill="#6C31E3"/>
<path d="M310.743 602.14C369.841 482.162 368.192 396.208 343.045 334.866C319.901 278.418 276.856 242.813 242.927 220.716C242.213 223.908 241.177 227.025 239.835 230.017L160.271 407.322C152.099 425.532 155.863 446.885 169.771 461.203L297.028 592.235C301.02 596.345 305.67 599.684 310.743 602.14Z" fill="url(#paint8_radial_3_41)"/>
<path d="M550.38 648.796C582.835 657.798 615.495 631.724 619.989 598.346C623.859 569.61 631.802 536.211 647.745 507.08C611.166 428.343 566.933 387.511 518.443 369.414C467.114 350.257 411.016 356.573 354.176 370.377C366.883 428.202 359.276 503.722 310.809 602.129C316.328 604.801 322.346 606.428 328.564 606.871C328.564 606.871 363.538 609.817 405.13 612.76C446.723 615.703 508.618 637.215 550.38 648.796Z" fill="url(#paint9_radial_3_41)"/>
<path d="M471.57 358.622C487.54 360.29 503.192 363.732 518.426 369.415C566.926 387.514 611.169 428.348 647.753 507.078C650.213 502.584 652.865 498.19 655.723 493.93C686.718 447.715 708.613 411.695 719.694 392.935C724.785 384.324 723.861 373.529 717.835 365.545C702.135 344.743 672.091 302.468 655.723 263.325C638.894 223.083 636.382 160.603 636.24 130.17C636.184 118.603 632.517 107.306 625.362 98.214L498.9 -62.4136C498.225 -63.2726 497.525 -64.1021 496.805 -64.9026C506.084 -34.4935 505.455 -10.0311 499.731 12.2069C494.424 32.822 484.736 51.5258 474.503 71.2819L474.501 71.2848C471.068 77.9107 467.576 84.6553 464.165 91.6313C450.588 119.403 438.33 150.831 436.522 192.973C434.713 235.118 443.352 287.977 471.574 358.62L471.57 358.622Z" fill="url(#paint10_radial_3_41)"/>
<path d="M471.553 358.62C443.334 287.979 434.69 235.118 436.5 192.972C438.309 150.825 450.568 119.398 464.146 91.6244C467.558 84.6469 471.051 77.9024 474.484 71.275C484.715 51.5183 494.404 32.8164 499.71 12.203C505.435 -10.04 506.064 -34.5089 496.776 -64.9309C478.935 -84.7313 448.138 -86.5973 428.017 -68.4995L277.476 66.9054C269.08 74.4572 263.567 84.6926 261.882 95.8583L243.556 217.34C243.386 218.467 243.176 219.587 242.928 220.7C276.858 242.796 319.91 278.405 343.055 334.86C347.576 345.888 351.338 357.707 354.124 370.38C394.098 360.672 433.708 354.669 471.553 358.62Z" fill="url(#paint11_radial_3_41)"/>
<path fill-rule="evenodd" clip-rule="evenodd" d="M436.795 190.196C434.98 232.003 440.199 279.961 468.359 350.455L459.517 349.658C434.251 276.095 428.753 238.378 430.593 195.992C432.435 153.587 446.136 120.978 459.791 93.1632C463.249 86.1186 471.318 72.8902 474.771 66.25C484.995 46.5899 491.799 36.2044 497.642 18.2342C505.806 -6.87487 504.04 -18.7676 503.109 -30.6029C509.591 12.1809 484.987 49.3839 466.386 87.275C452.836 114.878 438.608 148.409 436.795 190.196Z" fill="url(#paint12_radial_3_41)"/>
<path fill-rule="evenodd" clip-rule="evenodd" d="M351.371 337.975C354.711 345.698 357.866 351.935 359.858 361.49L352.478 363.149C349.408 351.991 347.035 344.053 342.786 334.481C317.357 274.488 276.547 243.629 243.195 220.995C283.48 242.668 324.826 276.59 351.371 337.975Z" fill="url(#paint13_radial_3_41)"/>
<path fill-rule="evenodd" clip-rule="evenodd" d="M360.287 369.039C374.378 434.611 358.658 517.915 312.333 598.892C351.054 518.64 369.825 441.562 354.192 370.346L360.287 369.039Z" fill="url(#paint14_radial_3_41)"/>
<path fill-rule="evenodd" clip-rule="evenodd" d="M520.176 363.14C596.129 391.564 625.374 453.973 647.233 506.034C620.236 451.519 582.702 391.315 517.451 368.968C467.801 351.964 425.87 353.98 354.187 370.249L352.589 363.14C428.666 345.807 468.441 343.78 520.176 363.14Z" fill="url(#paint15_radial_3_41)"/>
</g>
<line x1="5.28089" y1="687.141" x2="293.141" y2="206.719" stroke="url(#paint16_linear_3_41)" stroke-opacity="0.7" stroke-width="10" stroke-linecap="round" stroke-dasharray="20 20"/>
<line x1="397.133" y1="378.313" x2="293.313" y2="206.867" stroke="black" stroke-opacity="0.7" stroke-width="10" stroke-linecap="round" stroke-dasharray="20 20"/>
<line x1="399.058" y1="376.992" x2="672.992" y2="17.9423" stroke="url(#paint17_linear_3_41)" stroke-opacity="0.7" stroke-width="10" stroke-linecap="round" stroke-dasharray="20 20"/>
<path d="M575 276C575 386.457 485.457 476 375 476C264.543 476 175 386.457 175 276C175 165.543 264.543 76 375 76C485.457 76 575 165.543 575 276ZM205 276C205 369.888 281.112 446 375 446C468.888 446 545 369.888 545 276C545 182.112 468.888 106 375 106C281.112 106 205 182.112 205 276Z" fill="black"/>
<path d="M299.5 149.5C387.5 91 501.214 143.553 523.5 263" stroke="white" stroke-opacity="0.5" stroke-width="10" stroke-linecap="round"/>
<circle cx="524" cy="280" r="5" fill="white" fill-opacity="0.5"/>
<circle cx="294" cy="208" r="15" fill="black"/>
<circle cx="400" cy="376" r="15" fill="black"/>
<defs>
<filter id="filter0_f_3_41" x="190" y="0" width="443.575" height="569.449" filterUnits="userSpaceOnUse" color-interpolation-filters="sRGB">
<feFlood flood-opacity="0" result="BackgroundImageFix"/>
<feBlend mode="normal" in="SourceGraphic" in2="BackgroundImageFix" result="shape"/>
<feGaussianBlur stdDeviation="2.5" result="effect1_foregroundBlur_3_41"/>
</filter>
<radialGradient id="paint0_radial_3_41" cx="0" cy="0" r="1" gradientUnits="userSpaceOnUse" gradientTransform="translate(308.469 518.329) rotate(-104.574) scale(254.554 169.635)">
<stop stop-color="white" stop-opacity="0.4"/>
<stop offset="1" stop-opacity="0.1"/>
</radialGradient>
<radialGradient id="paint1_radial_3_41" cx="0" cy="0" r="1" gradientUnits="userSpaceOnUse" gradientTransform="translate(498.419 564.436) rotate(-120.563) scale(206.844 237.499)">
<stop stop-color="white" stop-opacity="0.3"/>
<stop offset="1" stop-opacity="0.25"/>
</radialGradient>
<radialGradient id="paint2_radial_3_41" cx="0" cy="0" r="1" gradientUnits="userSpaceOnUse" gradientTransform="translate(525.425 413.66) rotate(-82.4846) scale(417.712 308.608)">
<stop stop-color="white" stop-opacity="0.55"/>
<stop offset="1" stop-color="white" stop-opacity="0.05"/>
</radialGradient>
<radialGradient id="paint3_radial_3_41" cx="0" cy="0" r="1" gradientUnits="userSpaceOnUse" gradientTransform="translate(323.722 340.324) rotate(-77.7214) scale(356.704 243.263)">
<stop stop-color="white" stop-opacity="0.83"/>
<stop offset="1" stop-color="white" stop-opacity="0.4"/>
</radialGradient>
<radialGradient id="paint4_radial_3_41" cx="0" cy="0" r="1" gradientUnits="userSpaceOnUse" gradientTransform="translate(470.791 144.863) rotate(102.236) scale(185.601 125.158)">
<stop stop-color="white" stop-opacity="0"/>
<stop offset="1" stop-color="white" stop-opacity="0.17"/>
</radialGradient>
<radialGradient id="paint5_radial_3_41" cx="0" cy="0" r="1" gradientUnits="userSpaceOnUse" gradientTransform="translate(253.347 245.389) rotate(45.3237) scale(136.759 291.284)">
<stop stop-color="white" stop-opacity="0.2"/>
<stop offset="1" stop-color="white" stop-opacity="0.44"/>
</radialGradient>
<radialGradient id="paint6_radial_3_41" cx="0" cy="0" r="1" gradientUnits="userSpaceOnUse" gradientTransform="translate(356.597 310.101) rotate(80.2016) scale(160.291 340.385)">
<stop stop-color="white" stop-opacity="0.25"/>
<stop offset="1" stop-color="white" stop-opacity="0.3"/>
</radialGradient>
<radialGradient id="paint7_radial_3_41" cx="0" cy="0" r="1" gradientUnits="userSpaceOnUse" gradientTransform="translate(569.133 440.976) rotate(-152.297) scale(244.244 768.62)">
<stop stop-color="white" stop-opacity="0.21"/>
<stop offset="0.46738" stop-color="white" stop-opacity="0.19"/>
<stop offset="1" stop-color="white" stop-opacity="0.29"/>
</radialGradient>
<radialGradient id="paint8_radial_3_41" cx="0" cy="0" r="1" gradientUnits="userSpaceOnUse" gradientTransform="translate(304.387 590.296) rotate(-104.574) scale(332.889 221.837)">
<stop stop-color="white" stop-opacity="0.4"/>
<stop offset="1" stop-opacity="0.1"/>
</radialGradient>
<radialGradient id="paint9_radial_3_41" cx="0" cy="0" r="1" gradientUnits="userSpaceOnUse" gradientTransform="translate(552.791 650.592) rotate(-120.563) scale(270.497 310.585)">
<stop stop-color="white" stop-opacity="0.3"/>
<stop offset="1" stop-opacity="0.25"/>
</radialGradient>
<radialGradient id="paint10_radial_3_41" cx="0" cy="0" r="1" gradientUnits="userSpaceOnUse" gradientTransform="translate(588.108 453.418) rotate(-82.4846) scale(546.255 403.577)">
<stop stop-color="white" stop-opacity="0.55"/>
<stop offset="1" stop-color="white" stop-opacity="0.05"/>
</radialGradient>
<radialGradient id="paint11_radial_3_41" cx="0" cy="0" r="1" gradientUnits="userSpaceOnUse" gradientTransform="translate(324.334 357.514) rotate(-77.7214) scale(466.473 318.123)">
<stop stop-color="white" stop-opacity="0.83"/>
<stop offset="1" stop-color="white" stop-opacity="0.4"/>
</radialGradient>
<radialGradient id="paint12_radial_3_41" cx="0" cy="0" r="1" gradientUnits="userSpaceOnUse" gradientTransform="translate(516.661 101.903) rotate(102.236) scale(242.716 163.672)">
<stop stop-color="white" stop-opacity="0"/>
<stop offset="1" stop-color="white" stop-opacity="0.17"/>
</radialGradient>
<radialGradient id="paint13_radial_3_41" cx="0" cy="0" r="1" gradientUnits="userSpaceOnUse" gradientTransform="translate(232.303 233.364) rotate(45.3237) scale(178.844 380.921)">
<stop stop-color="white" stop-opacity="0.2"/>
<stop offset="1" stop-color="white" stop-opacity="0.44"/>
</radialGradient>
<radialGradient id="paint14_radial_3_41" cx="0" cy="0" r="1" gradientUnits="userSpaceOnUse" gradientTransform="translate(367.325 317.99) rotate(80.2016) scale(209.617 445.132)">
<stop stop-color="white" stop-opacity="0.25"/>
<stop offset="1" stop-color="white" stop-opacity="0.3"/>
</radialGradient>
<radialGradient id="paint15_radial_3_41" cx="0" cy="0" r="1" gradientUnits="userSpaceOnUse" gradientTransform="translate(645.265 489.14) rotate(-152.297) scale(319.405 1005.15)">
<stop stop-color="white" stop-opacity="0.21"/>
<stop offset="0.46738" stop-color="white" stop-opacity="0.19"/>
<stop offset="1" stop-color="white" stop-opacity="0.29"/>
</radialGradient>
<linearGradient id="paint16_linear_3_41" x1="300.429" y1="205.257" x2="7.4289" y2="694.257" gradientUnits="userSpaceOnUse">
<stop/>
<stop offset="0.625" stop-opacity="0"/>
</linearGradient>
<linearGradient id="paint17_linear_3_41" x1="680.398" y1="17.3033" x2="400.398" y2="384.303" gradientUnits="userSpaceOnUse">
<stop offset="0.065" stop-opacity="0"/>
<stop offset="1"/>
</linearGradient>
</defs>
</svg>
