<svg width="491" height="631" viewBox="0 0 491 631" fill="none" xmlns="http://www.w3.org/2000/svg">
<path d="M365.801 559.497C362.365 585.021 337.386 604.96 312.564 598.076C277.195 588.332 236.243 573.135 199.395 570.303C194.537 569.93 142.92 566.017 142.92 566.017C133.79 565.366 125.22 561.377 118.843 554.811L21.5318 454.613C10.8972 443.664 8.01851 427.336 14.2675 413.411C14.2675 413.411 74.4395 281.184 76.6743 274.308C78.9091 267.431 87.1108 207.458 91.971 175.24C93.2593 166.702 97.4748 158.875 103.895 153.101L219.011 49.559C235.027 35.1542 259.887 37.2889 273.211 54.2129L369.914 177.042C375.386 183.994 378.19 192.633 378.231 201.478C378.341 224.749 380.262 272.527 393.129 303.299C405.647 333.232 428.621 365.558 440.628 381.465C445.235 387.57 445.941 395.826 442.048 402.41C433.575 416.756 416.832 444.299 393.129 479.639C376.788 504.006 369.216 534.127 365.801 559.497Z" fill="#6C31E3"/>
<path d="M129.329 562.385C174.52 470.64 173.26 404.913 154.03 358.006C136.332 314.841 103.416 287.614 77.4718 270.717C76.9254 273.158 76.1332 275.541 75.1072 277.829L14.2659 413.411C8.01691 427.336 10.8956 443.665 21.5302 454.613L118.842 554.811C121.894 557.954 125.45 560.507 129.329 562.385Z" fill="url(#paint0_radial_3_41)"/>
<path d="M312.575 598.062C337.393 604.946 362.368 585.008 365.804 559.484C368.764 537.51 374.838 511.97 387.029 489.695C359.058 429.486 325.234 398.263 288.154 384.424C248.904 369.775 206.006 374.605 162.542 385.16C172.258 429.378 166.442 487.127 129.38 562.377C133.6 564.42 138.202 565.664 142.957 566.003C142.957 566.003 169.7 568.256 201.506 570.506C233.311 572.757 280.641 589.207 312.575 598.062Z" fill="url(#paint1_radial_3_41)"/>
<path d="M252.311 376.171C264.523 377.447 276.492 380.079 288.141 384.425C325.228 398.265 359.06 429.489 387.035 489.693C388.916 486.257 390.944 482.897 393.13 479.639C416.831 444.299 433.574 416.756 442.047 402.41C445.94 395.826 445.234 387.57 440.625 381.465C428.62 365.558 405.646 333.232 393.13 303.299C380.261 272.527 378.34 224.749 378.231 201.478C378.189 192.633 375.384 183.994 369.913 177.042L273.21 54.2128C272.693 53.5559 272.158 52.9216 271.608 52.3094C278.703 75.5628 278.222 94.2687 273.845 111.274C269.787 127.038 262.379 141.34 254.554 156.447L254.552 156.45C251.927 161.516 249.257 166.674 246.648 172.008C236.266 193.245 226.893 217.277 225.51 249.503C224.127 281.73 230.733 322.151 252.314 376.17L252.311 376.171Z" fill="url(#paint2_radial_3_41)"/>
<path d="M252.298 376.17C230.719 322.152 224.11 281.73 225.493 249.501C226.877 217.273 236.251 193.241 246.634 172.003C249.243 166.667 251.914 161.51 254.539 156.442C262.363 141.334 269.771 127.033 273.829 111.271C278.207 94.2619 278.688 75.5509 271.585 52.2878C257.943 37.1467 234.393 35.7198 219.007 49.559L103.891 153.101C97.4702 158.875 93.2547 166.702 91.9664 175.24L77.9529 268.136C77.8229 268.997 77.6622 269.854 77.4721 270.705C103.418 287.602 136.339 314.831 154.038 358.001C157.495 366.434 160.371 375.472 162.502 385.162C193.07 377.739 223.359 373.148 252.298 376.17Z" fill="url(#paint3_radial_3_41)"/>
<path fill-rule="evenodd" clip-rule="evenodd" d="M225.719 247.379C224.331 279.348 228.322 316.021 249.856 369.927L243.094 369.316C223.774 313.064 219.57 284.223 220.977 251.811C222.385 219.385 232.862 194.449 243.304 173.18C245.948 167.793 252.119 157.677 254.759 152.6C262.577 137.566 267.78 129.624 272.248 115.883C278.491 96.6822 277.14 87.588 276.429 78.5378C281.385 111.254 262.571 139.702 248.347 168.677C237.986 189.784 227.105 215.425 225.719 247.379Z" fill="url(#paint4_radial_3_41)"/>
<path fill-rule="evenodd" clip-rule="evenodd" d="M160.397 360.383C162.951 366.289 165.363 371.058 166.886 378.365L161.244 379.633C158.896 371.101 157.082 365.031 153.832 357.711C134.387 311.836 103.18 288.238 77.6769 270.93C108.481 287.503 140.098 313.443 160.397 360.383Z" fill="url(#paint5_radial_3_41)"/>
<path fill-rule="evenodd" clip-rule="evenodd" d="M167.214 384.137C177.99 434.279 165.969 497.98 130.545 559.902C160.155 498.534 174.508 439.594 162.554 385.137L167.214 384.137Z" fill="url(#paint6_radial_3_41)"/>
<path fill-rule="evenodd" clip-rule="evenodd" d="M289.479 379.626C347.559 401.361 369.922 449.085 386.638 488.895C365.993 447.208 337.292 401.171 287.395 384.083C249.429 371.08 217.365 372.622 162.55 385.062L161.328 379.626C219.503 366.372 249.918 364.822 289.479 379.626Z" fill="url(#paint7_radial_3_41)"/>
<line x1="196.467" y1="206.528" x2="464.528" y2="595.533" stroke="white" stroke-width="51" stroke-linecap="round"/>
<mask id="mask0_3_41" style="mask-type:alpha" maskUnits="userSpaceOnUse" x="0" y="0" width="400" height="400">
<circle cx="200" cy="200" r="200" fill="#D9D9D9"/>
</mask>
<g mask="url(#mask0_3_41)">
<path d="M437.985 649.363C433.491 682.741 400.826 708.816 368.364 699.813C322.111 687.071 268.558 667.198 220.37 663.494C214.017 663.006 146.516 657.889 146.516 657.889C134.576 657.038 123.369 651.821 115.03 643.235L-12.2273 512.202C-26.1346 497.885 -29.8991 476.531 -21.727 458.321C-21.727 458.321 56.9618 285.404 59.8843 276.412C62.8069 267.419 73.5324 188.991 79.8883 146.858C81.573 135.693 87.0858 125.457 95.4821 117.905L246.023 -17.4995C266.968 -36.337 299.477 -33.5455 316.901 -11.4134L443.363 149.214C450.519 158.306 454.186 169.603 454.239 181.17C454.384 211.603 456.895 274.083 473.723 314.325C490.093 353.468 520.136 395.743 535.838 416.545C541.863 424.529 542.786 435.324 537.696 443.935C526.614 462.695 504.72 498.715 473.723 544.93C452.353 576.795 442.45 616.185 437.985 649.363Z" fill="#6C31E3"/>
<path d="M128.743 653.14C187.841 533.162 186.192 447.208 161.045 385.866C137.901 329.418 94.8557 293.813 60.9273 271.716C60.2128 274.908 59.1768 278.025 57.8351 281.017L-21.729 458.322C-29.9011 476.532 -26.1366 497.885 -12.2293 512.203L115.028 643.235C119.02 647.345 123.67 650.684 128.743 653.14Z" fill="url(#paint8_radial_3_41)"/>
<path d="M289.57 409.622C305.54 411.29 321.192 414.732 336.426 420.415C384.926 438.514 429.169 479.348 465.753 558.078C468.213 553.584 470.865 549.19 473.723 544.93C504.718 498.715 526.613 462.695 537.694 443.935C542.785 435.324 541.861 424.529 535.835 416.545C520.135 395.743 490.091 353.468 473.723 314.325C456.894 274.083 454.382 211.603 454.24 181.17C454.184 169.603 450.517 158.306 443.362 149.214L316.9 -11.4136C316.225 -12.2726 315.525 -13.1021 314.805 -13.9026C324.084 16.5065 323.455 40.9689 317.731 63.2069C312.424 83.822 302.736 102.526 292.503 122.282L292.501 122.285C289.068 128.911 285.576 135.655 282.165 142.631C268.588 170.403 256.33 201.831 254.522 243.973C252.713 286.118 261.352 338.977 289.574 409.62L289.57 409.622Z" fill="url(#paint9_radial_3_41)"/>
<path d="M289.553 409.62C261.334 338.979 252.69 286.118 254.5 243.972C256.309 201.825 268.568 170.398 282.146 142.624C285.558 135.647 289.051 128.902 292.484 122.275C302.715 102.518 312.404 83.8164 317.71 63.203C323.435 40.96 324.064 16.4911 314.776 -13.9309C296.935 -33.7313 266.138 -35.5973 246.017 -17.4995L95.4762 117.905C87.0799 125.457 81.5671 135.693 79.8824 146.858L61.5564 268.34C61.3864 269.467 61.1763 270.587 60.9277 271.7C94.8575 293.796 137.91 329.405 161.055 385.86C165.576 396.888 169.338 408.707 172.124 421.38C212.098 411.672 251.708 405.669 289.553 409.62Z" fill="url(#paint10_radial_3_41)"/>
<path fill-rule="evenodd" clip-rule="evenodd" d="M254.795 241.196C252.98 283.003 258.199 330.961 286.359 401.455L277.517 400.658C252.251 327.095 246.753 289.378 248.593 246.992C250.435 204.587 264.136 171.978 277.791 144.163C281.249 137.119 289.318 123.89 292.771 117.25C302.995 97.5899 309.799 87.2044 315.642 69.2342C323.806 44.1251 322.04 32.2324 321.109 20.3971C327.591 63.1809 302.987 100.384 284.386 138.275C270.836 165.878 256.608 199.409 254.795 241.196Z" fill="url(#paint11_radial_3_41)"/>
<path fill-rule="evenodd" clip-rule="evenodd" d="M169.371 388.975C172.711 396.698 175.866 402.935 177.858 412.49L170.478 414.149C167.408 402.991 165.035 395.053 160.786 385.481C135.357 325.488 94.5466 294.629 61.1955 271.995C101.48 293.668 142.826 327.59 169.371 388.975Z" fill="url(#paint12_radial_3_41)"/>
<path fill-rule="evenodd" clip-rule="evenodd" d="M338.176 414.14C414.129 442.564 443.374 504.973 465.233 557.034C438.236 502.519 400.702 442.315 335.451 419.968C285.801 402.964 243.87 404.98 172.187 421.249L170.589 414.14C246.666 396.807 286.441 394.78 338.176 414.14Z" fill="url(#paint13_radial_3_41)"/>
</g>
<path d="M400 200C400 310.457 310.457 400 200 400C89.5431 400 0 310.457 0 200C0 89.5431 89.5431 0 200 0C310.457 0 400 89.5431 400 200ZM30 200C30 293.888 106.112 370 200 370C293.888 370 370 293.888 370 200C370 106.112 293.888 30 200 30C106.112 30 30 106.112 30 200Z" fill="white"/>
<path d="M124.5 73.5C212.5 15 326.214 67.553 348.5 187" stroke="white" stroke-opacity="0.5" stroke-width="10" stroke-linecap="round"/>
<circle cx="349" cy="204" r="5" fill="white" fill-opacity="0.5"/>
<defs>
<radialGradient id="paint0_radial_3_41" cx="0" cy="0" r="1" gradientUnits="userSpaceOnUse" gradientTransform="translate(124.469 553.329) rotate(-104.574) scale(254.554 169.635)">
<stop stop-color="white" stop-opacity="0.4"/>
<stop offset="1" stop-opacity="0.1"/>
</radialGradient>
<radialGradient id="paint1_radial_3_41" cx="0" cy="0" r="1" gradientUnits="userSpaceOnUse" gradientTransform="translate(314.419 599.436) rotate(-120.563) scale(206.844 237.499)">
<stop stop-color="white" stop-opacity="0.3"/>
<stop offset="1" stop-opacity="0.25"/>
</radialGradient>
<radialGradient id="paint2_radial_3_41" cx="0" cy="0" r="1" gradientUnits="userSpaceOnUse" gradientTransform="translate(341.425 448.66) rotate(-82.4846) scale(417.712 308.608)">
<stop stop-color="white" stop-opacity="0.55"/>
<stop offset="1" stop-color="white" stop-opacity="0.05"/>
</radialGradient>
<radialGradient id="paint3_radial_3_41" cx="0" cy="0" r="1" gradientUnits="userSpaceOnUse" gradientTransform="translate(139.722 375.324) rotate(-77.7214) scale(356.704 243.263)">
<stop stop-color="white" stop-opacity="0.83"/>
<stop offset="1" stop-color="white" stop-opacity="0.4"/>
</radialGradient>
<radialGradient id="paint4_radial_3_41" cx="0" cy="0" r="1" gradientUnits="userSpaceOnUse" gradientTransform="translate(286.791 179.863) rotate(102.236) scale(185.601 125.158)">
<stop stop-color="white" stop-opacity="0"/>
<stop offset="1" stop-color="white" stop-opacity="0.17"/>
</radialGradient>
<radialGradient id="paint5_radial_3_41" cx="0" cy="0" r="1" gradientUnits="userSpaceOnUse" gradientTransform="translate(69.3474 280.389) rotate(45.3237) scale(136.759 291.284)">
<stop stop-color="white" stop-opacity="0.2"/>
<stop offset="1" stop-color="white" stop-opacity="0.44"/>
</radialGradient>
<radialGradient id="paint6_radial_3_41" cx="0" cy="0" r="1" gradientUnits="userSpaceOnUse" gradientTransform="translate(172.597 345.101) rotate(80.2016) scale(160.291 340.385)">
<stop stop-color="white" stop-opacity="0.25"/>
<stop offset="1" stop-color="white" stop-opacity="0.3"/>
</radialGradient>
<radialGradient id="paint7_radial_3_41" cx="0" cy="0" r="1" gradientUnits="userSpaceOnUse" gradientTransform="translate(385.133 475.976) rotate(-152.297) scale(244.244 768.62)">
<stop stop-color="white" stop-opacity="0.21"/>
<stop offset="0.46738" stop-color="white" stop-opacity="0.19"/>
<stop offset="1" stop-color="white" stop-opacity="0.29"/>
</radialGradient>
<radialGradient id="paint8_radial_3_41" cx="0" cy="0" r="1" gradientUnits="userSpaceOnUse" gradientTransform="translate(122.387 641.296) rotate(-104.574) scale(332.889 221.837)">
<stop stop-color="white" stop-opacity="0.4"/>
<stop offset="1" stop-opacity="0.1"/>
</radialGradient>
<radialGradient id="paint9_radial_3_41" cx="0" cy="0" r="1" gradientUnits="userSpaceOnUse" gradientTransform="translate(406.108 504.418) rotate(-82.4846) scale(546.255 403.577)">
<stop stop-color="white" stop-opacity="0.55"/>
<stop offset="1" stop-color="white" stop-opacity="0.05"/>
</radialGradient>
<radialGradient id="paint10_radial_3_41" cx="0" cy="0" r="1" gradientUnits="userSpaceOnUse" gradientTransform="translate(142.334 408.514) rotate(-77.7214) scale(466.473 318.123)">
<stop stop-color="white" stop-opacity="0.83"/>
<stop offset="1" stop-color="white" stop-opacity="0.4"/>
</radialGradient>
<radialGradient id="paint11_radial_3_41" cx="0" cy="0" r="1" gradientUnits="userSpaceOnUse" gradientTransform="translate(334.661 152.903) rotate(102.236) scale(242.716 163.672)">
<stop stop-color="white" stop-opacity="0"/>
<stop offset="1" stop-color="white" stop-opacity="0.17"/>
</radialGradient>
<radialGradient id="paint12_radial_3_41" cx="0" cy="0" r="1" gradientUnits="userSpaceOnUse" gradientTransform="translate(50.3027 284.364) rotate(45.3237) scale(178.844 380.921)">
<stop stop-color="white" stop-opacity="0.2"/>
<stop offset="1" stop-color="white" stop-opacity="0.44"/>
</radialGradient>
<radialGradient id="paint13_radial_3_41" cx="0" cy="0" r="1" gradientUnits="userSpaceOnUse" gradientTransform="translate(463.265 540.14) rotate(-152.297) scale(319.405 1005.15)">
<stop stop-color="white" stop-opacity="0.21"/>
<stop offset="0.46738" stop-color="white" stop-opacity="0.19"/>
<stop offset="1" stop-color="white" stop-opacity="0.29"/>
</radialGradient>
</defs>
</svg>
